<svg width="20" height="21" viewBox="0 0 20 21" fill="none" xmlns="http://www.w3.org/2000/svg">
<path d="M7.25991 12.2288C7.25991 12.1177 7.27713 12.0135 7.31157 11.9163C7.34602 11.8191 7.40518 11.7288 7.48907 11.6455L11.3432 7.7913C11.496 7.63852 11.6871 7.56575 11.9166 7.57297C12.146 7.58019 12.3369 7.65991 12.4891 7.81213C12.6419 7.96491 12.7182 8.15936 12.7182 8.39547C12.7182 8.63158 12.6419 8.82602 12.4891 8.9788L9.23907 12.2288L12.5099 15.4996C12.6627 15.6524 12.7357 15.8435 12.7291 16.073C12.7224 16.3024 12.6424 16.4932 12.4891 16.6455C12.3363 16.7982 12.1419 16.8746 11.9057 16.8746C11.6696 16.8746 11.4752 16.7982 11.3224 16.6455L7.48907 12.8121C7.40574 12.7288 7.34657 12.6385 7.31157 12.5413C7.27657 12.4441 7.25935 12.3399 7.25991 12.2288Z" fill="#222222"/>
</svg>
