<svg width="32" height="32" viewBox="0 0 32 32" fill="none" xmlns="http://www.w3.org/2000/svg">
<path fill-rule="evenodd" clip-rule="evenodd" d="M19.4 7.69995H12.6C11.7 7.69995 11.1 7.89995 10.6 8.09995C10.1 8.29995 9.59995 8.59995 9.09995 9.09995C8.59995 9.59995 8.39995 9.99995 8.09995 10.6C7.89995 11.1 7.79995 11.7 7.69995 12.6V19.4C7.69995 20.3 7.89995 20.9 8.09995 21.4C8.29995 21.9 8.59995 22.4 9.09995 22.9C9.59995 23.4 9.99995 23.6 10.6 23.9C11.1 24.1 11.7 24.1999 12.6 24.2999H19.4C20.3 24.2999 20.9 24.1 21.4 23.9C21.9 23.7 22.4 23.4 22.9 22.9C23.4 22.4 23.6 22 23.9 21.4C24.1 20.9 24.2 20.3 24.2999 19.4V12.6C24.2999 11.7 24.1 11.1 23.9 10.6C23.7 10.1 23.4 9.59995 22.9 9.09995C22.4 8.59995 22 8.39995 21.4 8.09995C20.9 7.89995 20.3 7.79995 19.4 7.69995ZM19.4 9.19995H12.6C11.8 9.29995 11.4 9.39995 11.1 9.49995C10.7 9.59995 10.4 9.79995 10.1 10.1C9.86257 10.3373 9.75041 10.5747 9.61484 10.8617L9.61476 10.8618L9.61475 10.8618L9.61475 10.8618L9.61475 10.8619C9.57904 10.9374 9.54162 11.0166 9.49995 11.1C9.48448 11.1464 9.46662 11.1952 9.44747 11.2475C9.34286 11.5333 9.19995 11.9237 9.19995 12.6V19.4C9.29995 20.2 9.39995 20.6 9.49995 20.9C9.59995 21.3 9.79995 21.6 10.1 21.9C10.3373 22.1373 10.5747 22.2495 10.8617 22.3851C10.9373 22.4208 11.0165 22.4582 11.1 22.5C11.1464 22.5154 11.1952 22.5333 11.2475 22.5524C11.5333 22.657 11.9237 22.7999 12.6 22.7999H19.4C20.2 22.7 20.6 22.6 20.9 22.5C21.3 22.4 21.6 22.2 21.9 21.9C22.1373 21.6626 22.2495 21.4252 22.3851 21.1382L22.3851 21.1382C22.4208 21.0625 22.4582 20.9834 22.5 20.9C22.5154 20.8535 22.5333 20.8047 22.5524 20.7524C22.657 20.4666 22.8 20.0762 22.8 19.4V12.6C22.7 11.8 22.6 11.4 22.5 11.1C22.4 10.7 22.2 10.4 21.9 10.1C21.6626 9.86257 21.4252 9.75041 21.1382 9.61484C21.0627 9.57913 20.9833 9.54162 20.9 9.49995C20.8535 9.48448 20.8047 9.46662 20.7524 9.44747C20.4666 9.34286 20.0762 9.19995 19.4 9.19995ZM16 11.7C13.6 11.7 11.7 13.6 11.7 16C11.7 18.4 13.6 20.2999 16 20.2999C18.4 20.2999 20.3 18.4 20.3 16C20.3 13.6 18.4 11.7 16 11.7ZM21.4 11.6C21.4 12.1522 20.9522 12.6 20.4 12.6C19.8477 12.6 19.4 12.1522 19.4 11.6C19.4 11.0477 19.8477 10.6 20.4 10.6C20.9522 10.6 21.4 11.0477 21.4 11.6ZM16 18.7999C14.5 18.7999 13.2 17.6 13.2 16C13.2 14.5 14.4 13.2 16 13.2C17.5 13.2 18.8 14.4 18.8 16C18.8 17.5 17.5 18.7999 16 18.7999Z" fill="#222222"/>
</svg>
