<svg width="32" height="32" viewBox="0 0 32 32" fill="none" xmlns="http://www.w3.org/2000/svg">
<path fill-rule="evenodd" clip-rule="evenodd" d="M15.9968 8C13.8254 8 13.5524 8.00953 12.6984 8.04763C11.8476 8.08573 11.2667 8.22227 10.7587 8.41913C10.2317 8.62235 9.7873 8.89859 9.34286 9.34312C8.89841 9.78766 8.6254 10.2354 8.41905 10.7593C8.22222 11.2673 8.08571 11.8484 8.04762 12.7025C8.00952 13.5535 8 13.8266 8 15.9984C8 18.1703 8.00952 18.4433 8.04762 19.2975C8.08571 20.1484 8.22222 20.7295 8.41905 21.2407C8.62222 21.7678 8.89841 22.2123 9.34286 22.6569C9.7873 23.1014 10.2349 23.3745 10.7587 23.5809C11.2667 23.7777 11.8476 23.9143 12.7016 23.9524C13.5556 23.9905 13.8254 24 16 24C18.1746 24 18.4444 23.9905 19.2984 23.9524C20.1492 23.9143 20.7302 23.7777 21.2413 23.5809C21.7683 23.3777 22.2127 23.1014 22.6571 22.6569C23.1016 22.2123 23.3746 21.7646 23.581 21.2407C23.7778 20.7327 23.9143 20.1516 23.9524 19.2975C23.9905 18.4433 24 18.1734 24 15.9984C24 13.8234 23.9905 13.5535 23.9524 12.6993C23.9143 11.8484 23.7778 11.2673 23.581 10.7561C23.3778 10.229 23.1016 9.78448 22.6571 9.33995C22.2127 8.89542 21.7651 8.62235 21.2413 8.41596C20.7333 8.21909 20.1524 8.08256 19.2984 8.04445C18.4413 8.00953 18.1683 8 15.9968 8ZM15.997 11.8926C13.7303 11.8926 11.889 13.731 11.889 16.0013C11.889 18.2716 13.7271 20.1101 15.997 20.1101C18.2668 20.1101 20.1049 18.2716 20.1049 16.0013C20.1049 13.731 18.2668 11.8926 15.997 11.8926ZM15.997 18.6653C14.524 18.6653 13.3303 17.4715 13.3303 15.9982C13.3303 14.5248 14.524 13.331 15.997 13.331C17.47 13.331 18.6636 14.5248 18.6636 15.9982C18.6636 17.4715 17.47 18.6653 15.997 18.6653ZM21.2255 11.7272C21.2255 12.2568 20.7961 12.6862 20.2665 12.6862C19.7369 12.6862 19.3076 12.2568 19.3076 11.7272C19.3076 11.1976 19.7369 10.7683 20.2665 10.7683C20.7961 10.7683 21.2255 11.1976 21.2255 11.7272Z" fill="#222222"/>
</svg>
