<svg width="505" height="155" viewBox="0 0 505 155" fill="none" xmlns="http://www.w3.org/2000/svg">
<path d="M53.4668 46.0641C52.3148 46.0641 51.5042 45.9788 51.0348 45.8081C50.6082 45.5948 50.3948 45.2108 50.3948 44.6561C50.3948 44.0161 51.0135 43.4828 52.2508 43.0561C54.0002 42.8001 55.2375 42.5228 55.9628 42.2241C56.6882 41.8828 57.1575 41.4348 57.3708 40.8801C57.5842 40.3254 57.6908 39.4081 57.6908 38.1281V7.6641C57.6908 6.29876 57.5415 5.38143 57.2428 4.9121C56.9442 4.44276 56.2828 4.2081 55.2588 4.2081H50.9708C49.9468 4.2081 49.1575 4.44276 48.6028 4.9121C48.0482 5.33876 47.5575 6.1281 47.1308 7.2801C46.7042 8.38943 46.0855 10.3734 45.2748 13.2321C44.9335 14.2561 44.5708 14.9814 44.1868 15.4081C43.8455 15.7921 43.4188 15.9841 42.9068 15.9841C42.3948 15.9841 42.0322 15.8561 41.8188 15.6001C41.6055 15.3014 41.4988 14.8534 41.4988 14.2561C41.4988 13.1468 41.9895 10.7788 42.9708 7.1521C43.6962 4.42143 44.2935 2.56543 44.7628 1.5841C45.2322 0.560097 45.7655 0.0480957 46.3628 0.0480957C46.6615 0.0480957 47.1095 0.176097 47.7068 0.432098C48.6455 0.944097 49.7548 1.2001 51.0348 1.2001H70.2348C71.1735 1.2001 71.8562 1.1361 72.2829 1.0081C72.7522 0.880098 73.2429 0.688098 73.7549 0.432098C74.2669 0.176097 74.6935 0.0480957 75.0349 0.0480957C75.4189 0.0480957 75.7389 0.218763 75.9949 0.560097C76.2935 0.858765 76.6135 1.5201 76.9548 2.5441C77.3388 3.52543 77.8082 5.06143 78.3628 7.1521C78.8322 8.8161 79.2162 10.2881 79.5149 11.5681C79.8135 12.8481 79.9629 13.8081 79.9629 14.4481C79.9629 15.0028 79.8562 15.4081 79.6429 15.6641C79.4295 15.8774 79.0882 15.9841 78.6189 15.9841C78.0642 15.9841 77.5949 15.7921 77.2109 15.4081C76.8695 14.9814 76.5069 14.2561 76.1229 13.2321C75.3549 10.4161 74.7575 8.4321 74.3308 7.2801C73.9042 6.1281 73.4135 5.33876 72.8588 4.9121C72.3468 4.44276 71.6002 4.2081 70.6189 4.2081H66.2669C65.1575 4.2081 64.4535 4.44276 64.1549 4.9121C63.8989 5.33876 63.7708 6.2561 63.7708 7.6641V37.8721C63.7708 39.2801 63.8775 40.2828 64.0908 40.8801C64.3042 41.4348 64.7522 41.8828 65.4349 42.2241C66.1602 42.5228 67.4189 42.8001 69.2109 43.0561C70.4482 43.4828 71.0668 44.0161 71.0668 44.6561C71.0668 45.1254 70.8535 45.4881 70.4268 45.7441C70.0428 45.9574 69.3175 46.0641 68.2508 46.0641H53.4668Z" fill="black"/>
<path d="M93.6343 46.7041C90.605 46.7041 87.8957 46.0428 85.5063 44.7201C83.117 43.3548 81.261 41.4774 79.9383 39.0881C78.6157 36.6561 77.9543 33.9254 77.9543 30.8961C77.9543 27.8668 78.6157 25.1574 79.9383 22.7681C81.261 20.3361 83.117 18.4588 85.5063 17.1361C87.8957 15.7708 90.605 15.0881 93.6343 15.0881C96.6637 15.0881 99.3517 15.7708 101.698 17.1361C104.088 18.4588 105.944 20.3361 107.266 22.7681C108.589 25.1574 109.25 27.8668 109.25 30.8961C109.25 33.9681 108.589 36.6988 107.266 39.0881C105.944 41.4774 104.109 43.3548 101.762 44.7201C99.4157 46.0428 96.7063 46.7041 93.6343 46.7041ZM94.0824 43.8241C96.813 43.8241 99.0104 42.8214 100.674 40.8161C102.381 38.8108 103.234 36.1441 103.234 32.8161C103.234 30.3414 102.808 27.9734 101.954 25.7121C101.144 23.4508 99.9703 21.6161 98.4343 20.2081C96.8983 18.7574 95.1277 18.0321 93.1224 18.0321C90.3917 18.0321 88.173 19.0348 86.4663 21.0401C84.8023 23.0454 83.9704 25.6908 83.9704 28.9761C83.9704 31.4508 84.3757 33.8401 85.1863 36.1441C86.0397 38.4481 87.2343 40.3041 88.7703 41.7121C90.3063 43.1201 92.077 43.8241 94.0824 43.8241Z" fill="black"/>
<path d="M115.846 46.1281C114.353 46.1281 113.329 46.0214 112.774 45.8081C112.22 45.5521 111.942 45.1894 111.942 44.7201C111.942 44.4214 112.028 44.1654 112.198 43.9521C112.412 43.7388 112.689 43.5894 113.03 43.5041C114.225 43.2908 115.078 43.0134 115.59 42.6721C116.102 42.3308 116.401 41.8828 116.486 41.3281C116.614 40.7734 116.678 39.8561 116.678 38.5761V7.4721C116.678 6.61876 116.572 6.0001 116.358 5.6161C116.188 5.2321 115.761 5.0401 115.078 5.0401C114.609 5.0401 114.161 5.06143 113.734 5.1041C113.35 5.14676 113.009 5.1681 112.71 5.1681C112.284 5.1681 111.964 5.12543 111.75 5.0401C111.58 4.9121 111.494 4.67743 111.494 4.3361C111.494 3.9521 111.644 3.65343 111.942 3.4401C112.284 3.1841 112.753 2.94943 113.35 2.7361C114.204 2.52276 115.206 2.2241 116.358 1.8401C116.572 1.79743 117.19 1.62676 118.214 1.3281C119.281 0.986764 120.07 0.816097 120.582 0.816097C121.18 0.816097 121.606 0.944097 121.862 1.2001C122.161 1.4561 122.31 1.9041 122.31 2.5441V20.2081C122.31 21.2321 122.396 21.7441 122.566 21.7441C122.652 21.7441 122.993 21.1681 123.59 20.0161C124.188 18.8214 125.254 17.7121 126.79 16.6881C128.326 15.6214 130.332 15.0881 132.806 15.0881C135.622 15.0881 137.926 15.9841 139.718 17.7761C141.51 19.5681 142.598 22.2774 142.982 25.9041L144.326 37.8721C144.497 39.5361 144.668 40.6881 144.838 41.3281C145.052 41.9254 145.393 42.3521 145.862 42.6081C146.332 42.8641 147.164 43.0988 148.358 43.3121C149.212 43.6108 149.638 44.0801 149.638 44.7201C149.638 45.1894 149.404 45.5521 148.934 45.8081C148.508 46.0214 147.676 46.1281 146.438 46.1281L141.894 46.0641L137.542 46.1281C136.348 46.1281 135.516 46.0428 135.046 45.8721C134.577 45.6588 134.342 45.2748 134.342 44.7201C134.342 44.0374 134.769 43.5894 135.622 43.3761C136.945 43.1201 137.82 42.8214 138.246 42.4801C138.716 42.1388 138.95 41.4348 138.95 40.3681C138.95 40.0268 138.865 39.0454 138.694 37.4241L137.478 26.8001C137.137 24.1548 136.412 22.2348 135.302 21.0401C134.193 19.8028 132.55 19.1841 130.374 19.1841C129.094 19.1841 127.836 19.5681 126.598 20.3361C125.361 21.0614 124.337 22.2134 123.526 23.7921C122.716 25.3708 122.31 27.3548 122.31 29.7441V38.5121C122.31 39.7921 122.374 40.7308 122.502 41.3281C122.63 41.8828 122.95 42.3308 123.462 42.6721C123.974 42.9708 124.828 43.2268 126.022 43.4401C126.79 43.6534 127.174 44.0801 127.174 44.7201C127.174 45.1894 126.918 45.5521 126.406 45.8081C125.937 46.0214 124.956 46.1281 123.462 46.1281L119.686 46.0641L115.846 46.1281Z" fill="black"/>
<path d="M190.742 46.7041C186.988 46.7041 183.553 45.7441 180.438 43.8241C177.366 41.8614 174.934 39.1094 173.142 35.5681C171.35 31.9841 170.454 27.8668 170.454 23.2161C170.454 19.0348 171.308 15.2161 173.014 11.7601C174.721 8.26143 177.089 5.50943 180.118 3.5041C183.148 1.49876 186.604 0.496098 190.486 0.496098C192.62 0.496098 194.668 0.83743 196.63 1.5201C198.593 2.1601 200.342 3.07743 201.878 4.2721C202.433 4.69876 203.18 5.4241 204.118 6.4481C204.972 7.55743 205.59 8.5601 205.974 9.4561C206.657 10.7361 206.998 12.1228 206.998 13.6161C206.998 14.5974 206.721 15.4294 206.166 16.1121C205.612 16.7948 204.78 17.1361 203.67 17.1361C202.817 17.1361 202.07 16.8588 201.43 16.3041C200.833 15.7494 200.3 14.7681 199.83 13.3601C199.83 10.6294 198.913 8.34676 197.078 6.5121C195.244 4.67743 192.833 3.7601 189.846 3.7601C187.372 3.7601 185.153 4.4641 183.19 5.8721C181.228 7.2801 179.67 9.24276 178.518 11.7601C177.409 14.2774 176.854 17.1574 176.854 20.4001C176.854 24.3254 177.473 27.8881 178.71 31.0881C179.948 34.2881 181.74 36.8268 184.086 38.7041C186.476 40.5388 189.313 41.4561 192.598 41.4561C196.097 41.4561 198.977 40.6241 201.238 38.9601C203.5 37.2961 204.886 35.0988 205.398 32.3681C205.569 31.8134 205.974 31.5361 206.614 31.5361C206.956 31.5361 207.254 31.6641 207.51 31.9201C207.809 32.1761 207.937 32.5174 207.894 32.9441C207.681 35.2481 206.892 37.4668 205.526 39.6001C204.161 41.6908 202.22 43.3974 199.702 44.7201C197.185 46.0428 194.198 46.7041 190.742 46.7041Z" fill="black"/>
<path d="M214.909 46.1281C213.416 46.1281 212.392 46.0214 211.837 45.8081C211.282 45.5521 211.005 45.1894 211.005 44.7201C211.005 44.4214 211.09 44.1654 211.261 43.9521C211.474 43.7388 211.752 43.5894 212.093 43.5041C213.288 43.2908 214.141 43.0134 214.653 42.6721C215.165 42.3308 215.464 41.8828 215.549 41.3281C215.677 40.7734 215.741 39.8561 215.741 38.5761V7.4721C215.741 6.61876 215.634 6.0001 215.421 5.6161C215.25 5.2321 214.824 5.0401 214.141 5.0401C213.672 5.0401 213.224 5.06143 212.797 5.1041C212.413 5.14676 212.072 5.1681 211.773 5.1681C211.346 5.1681 211.026 5.12543 210.813 5.0401C210.642 4.9121 210.557 4.67743 210.557 4.3361C210.557 3.9521 210.706 3.65343 211.005 3.4401C211.346 3.1841 211.816 2.94943 212.413 2.7361C213.266 2.52276 214.269 2.2241 215.421 1.8401C215.634 1.79743 216.253 1.62676 217.277 1.3281C218.344 0.986764 219.133 0.816097 219.645 0.816097C220.242 0.816097 220.669 0.944097 220.925 1.2001C221.224 1.4561 221.373 1.9041 221.373 2.5441V20.2081C221.373 21.2321 221.458 21.7441 221.629 21.7441C221.714 21.7441 222.056 21.1681 222.653 20.0161C223.25 18.8214 224.317 17.7121 225.853 16.6881C227.389 15.6214 229.394 15.0881 231.869 15.0881C234.685 15.0881 236.989 15.9841 238.781 17.7761C240.573 19.5681 241.661 22.2774 242.045 25.9041L243.389 37.8721C243.56 39.5361 243.73 40.6881 243.901 41.3281C244.114 41.9254 244.456 42.3521 244.925 42.6081C245.394 42.8641 246.226 43.0988 247.421 43.3121C248.274 43.6108 248.701 44.0801 248.701 44.7201C248.701 45.1894 248.466 45.5521 247.997 45.8081C247.57 46.0214 246.738 46.1281 245.501 46.1281L240.957 46.0641L236.605 46.1281C235.41 46.1281 234.578 46.0428 234.109 45.8721C233.64 45.6588 233.405 45.2748 233.405 44.7201C233.405 44.0374 233.832 43.5894 234.685 43.3761C236.008 43.1201 236.882 42.8214 237.309 42.4801C237.778 42.1388 238.013 41.4348 238.013 40.3681C238.013 40.0268 237.928 39.0454 237.757 37.4241L236.541 26.8001C236.2 24.1548 235.474 22.2348 234.365 21.0401C233.256 19.8028 231.613 19.1841 229.437 19.1841C228.157 19.1841 226.898 19.5681 225.661 20.3361C224.424 21.0614 223.4 22.2134 222.589 23.7921C221.778 25.3708 221.373 27.3548 221.373 29.7441V38.5121C221.373 39.7921 221.437 40.7308 221.565 41.3281C221.693 41.8828 222.013 42.3308 222.525 42.6721C223.037 42.9708 223.89 43.2268 225.085 43.4401C225.853 43.6534 226.237 44.0801 226.237 44.7201C226.237 45.1894 225.981 45.5521 225.469 45.8081C225 46.0214 224.018 46.1281 222.525 46.1281L218.749 46.0641L214.909 46.1281Z" fill="black"/>
<path d="M254.538 46.2561C253.088 46.2561 252.085 46.1494 251.53 45.9361C250.976 45.6801 250.698 45.3174 250.698 44.8481C250.698 44.2081 251.04 43.7814 251.722 43.5681C252.917 43.3974 253.77 43.1414 254.282 42.8001C254.794 42.4588 255.093 42.0108 255.178 41.4561C255.306 40.9014 255.37 39.9628 255.37 38.6401V22.0641C255.37 21.2108 255.285 20.5921 255.114 20.2081C254.944 19.8241 254.56 19.6321 253.962 19.6321C253.45 19.6321 252.981 19.6534 252.554 19.6961C252.128 19.7388 251.765 19.7601 251.466 19.7601C250.997 19.7601 250.656 19.7174 250.442 19.6321C250.272 19.5041 250.186 19.2694 250.186 18.9281C250.186 18.5441 250.336 18.2454 250.634 18.0321C250.976 17.7761 251.445 17.5414 252.042 17.3281L253.898 16.7521C256.757 15.8561 258.549 15.4081 259.274 15.4081C259.914 15.4081 260.362 15.5361 260.618 15.7921C260.917 16.0481 261.066 16.4961 261.066 17.1361V38.6401C261.066 39.9201 261.13 40.8374 261.258 41.3921C261.386 41.9468 261.706 42.3948 262.218 42.7361C262.73 43.0774 263.584 43.3548 264.778 43.5681C265.546 43.7814 265.93 44.2081 265.93 44.8481C265.93 45.3174 265.674 45.6801 265.162 45.9361C264.693 46.1494 263.712 46.2561 262.218 46.2561L258.378 46.1921L254.538 46.2561ZM257.098 10.2241C255.818 10.2241 254.794 9.92543 254.026 9.3281C253.258 8.6881 252.874 7.87743 252.874 6.8961C252.874 5.91477 253.258 5.14677 254.026 4.5921C254.794 3.99476 255.818 3.6961 257.098 3.6961C258.336 3.6961 259.317 3.99476 260.042 4.5921C260.81 5.14677 261.194 5.91477 261.194 6.8961C261.194 7.87743 260.81 8.6881 260.042 9.3281C259.317 9.92543 258.336 10.2241 257.098 10.2241Z" fill="black"/>
<path d="M272.601 46.1281C271.15 46.1281 270.148 46.0214 269.593 45.8081C269.038 45.5521 268.761 45.1894 268.761 44.7201C268.761 44.0374 269.102 43.6321 269.785 43.5041C270.98 43.2908 271.833 43.0134 272.345 42.6721C272.857 42.3308 273.156 41.8828 273.241 41.3281C273.369 40.7734 273.433 39.8561 273.433 38.5761V22.0641C273.433 21.2108 273.348 20.5921 273.177 20.2081C273.006 19.8241 272.58 19.6321 271.897 19.6321L269.529 19.6961C269.06 19.6961 268.718 19.6534 268.505 19.5681C268.334 19.4401 268.249 19.2268 268.249 18.9281C268.249 18.5441 268.398 18.2454 268.697 18.0321C269.038 17.7761 269.507 17.5414 270.105 17.3281L271.961 16.7521C274.82 15.8561 276.612 15.4081 277.337 15.4081C277.977 15.4081 278.425 15.5361 278.681 15.7921C278.98 16.0481 279.129 16.4961 279.129 17.1361V20.9761C279.129 21.4881 279.214 21.7441 279.385 21.7441C279.428 21.7441 279.748 21.1681 280.345 20.0161C280.942 18.8214 282.009 17.7121 283.545 16.6881C285.123 15.6214 287.15 15.0881 289.625 15.0881C295.598 15.0881 299.033 19.0134 299.929 26.8641L301.145 37.8081C301.358 39.5574 301.529 40.7308 301.657 41.3281C301.827 41.9254 302.148 42.3521 302.617 42.6081C303.086 42.8641 303.918 43.0988 305.113 43.3121C305.966 43.5681 306.393 44.0374 306.393 44.7201C306.393 45.1894 306.201 45.5521 305.817 45.8081C305.433 46.0214 304.708 46.1281 303.641 46.1281L299.097 46.0641L294.745 46.1281C293.38 46.1281 292.441 46.0428 291.929 45.8721C291.417 45.6588 291.161 45.2748 291.161 44.7201C291.161 43.9948 291.566 43.5468 292.377 43.3761C293.742 43.1628 294.638 42.9068 295.065 42.6081C295.492 42.2668 295.705 41.5841 295.705 40.5601C295.705 40.2188 295.62 39.1521 295.449 37.3601L294.361 27.8881C294.02 24.9014 293.294 22.7041 292.185 21.2961C291.076 19.8881 289.412 19.1841 287.193 19.1841C285.913 19.1841 284.654 19.5681 283.417 20.3361C282.18 21.1041 281.156 22.2774 280.345 23.8561C279.534 25.4348 279.129 27.3974 279.129 29.7441V38.5121C279.129 39.7921 279.193 40.7308 279.321 41.3281C279.449 41.8828 279.769 42.3308 280.281 42.6721C280.793 42.9708 281.646 43.2268 282.841 43.4401C283.609 43.6534 283.993 44.0801 283.993 44.7201C283.993 45.1894 283.737 45.5521 283.225 45.8081C282.756 46.0214 281.774 46.1281 280.281 46.1281L276.441 46.0641L272.601 46.1281Z" fill="black"/>
<path d="M347.492 46.7041C343.738 46.7041 340.303 45.7441 337.188 43.8241C334.116 41.8614 331.684 39.1094 329.892 35.5681C328.1 31.9841 327.204 27.8668 327.204 23.2161C327.204 19.0348 328.058 15.2161 329.764 11.7601C331.471 8.26143 333.839 5.50943 336.868 3.5041C339.898 1.49876 343.354 0.496098 347.236 0.496098C349.37 0.496098 351.418 0.83743 353.38 1.5201C355.343 2.1601 357.092 3.07743 358.628 4.2721C359.183 4.69876 359.93 5.4241 360.868 6.4481C361.722 7.55743 362.34 8.5601 362.724 9.4561C363.407 10.7361 363.748 12.1228 363.748 13.6161C363.748 14.5974 363.471 15.4294 362.916 16.1121C362.362 16.7948 361.53 17.1361 360.42 17.1361C359.567 17.1361 358.82 16.8588 358.18 16.3041C357.583 15.7494 357.05 14.7681 356.58 13.3601C356.58 10.6294 355.663 8.34676 353.828 6.5121C351.994 4.67743 349.583 3.7601 346.596 3.7601C344.122 3.7601 341.903 4.4641 339.94 5.8721C337.978 7.2801 336.42 9.24276 335.268 11.7601C334.159 14.2774 333.604 17.1574 333.604 20.4001C333.604 24.3254 334.223 27.8881 335.46 31.0881C336.698 34.2881 338.49 36.8268 340.836 38.7041C343.226 40.5388 346.063 41.4561 349.348 41.4561C352.847 41.4561 355.727 40.6241 357.988 38.9601C360.25 37.2961 361.636 35.0988 362.148 32.3681C362.319 31.8134 362.724 31.5361 363.364 31.5361C363.706 31.5361 364.004 31.6641 364.26 31.9201C364.559 32.1761 364.687 32.5174 364.644 32.9441C364.431 35.2481 363.642 37.4668 362.276 39.6001C360.911 41.6908 358.97 43.3974 356.452 44.7201C353.935 46.0428 350.948 46.7041 347.492 46.7041Z" fill="black"/>
<path d="M371.659 46.1281C370.166 46.1281 369.142 46.0214 368.587 45.8081C368.032 45.5521 367.755 45.1894 367.755 44.7201C367.755 44.4214 367.84 44.1654 368.011 43.9521C368.224 43.7388 368.502 43.5894 368.843 43.5041C370.038 43.2908 370.891 43.0134 371.403 42.6721C371.915 42.3308 372.213 41.8828 372.299 41.3281C372.427 40.7734 372.491 39.8561 372.491 38.5761V7.4721C372.491 6.61876 372.384 6.0001 372.171 5.6161C372 5.2321 371.574 5.0401 370.891 5.0401C370.422 5.0401 369.974 5.06143 369.547 5.1041C369.163 5.14676 368.821 5.1681 368.523 5.1681C368.096 5.1681 367.776 5.12543 367.563 5.0401C367.392 4.9121 367.307 4.67743 367.307 4.3361C367.307 3.9521 367.456 3.65343 367.755 3.4401C368.096 3.1841 368.566 2.94943 369.163 2.7361C370.016 2.52276 371.019 2.2241 372.171 1.8401C372.384 1.79743 373.003 1.62676 374.027 1.3281C375.094 0.986764 375.883 0.816097 376.395 0.816097C376.992 0.816097 377.419 0.944097 377.675 1.2001C377.974 1.4561 378.123 1.9041 378.123 2.5441V20.2081C378.123 21.2321 378.208 21.7441 378.379 21.7441C378.464 21.7441 378.805 21.1681 379.403 20.0161C380 18.8214 381.067 17.7121 382.603 16.6881C384.139 15.6214 386.144 15.0881 388.619 15.0881C391.435 15.0881 393.739 15.9841 395.531 17.7761C397.323 19.5681 398.411 22.2774 398.795 25.9041L400.139 37.8721C400.31 39.5361 400.48 40.6881 400.651 41.3281C400.864 41.9254 401.206 42.3521 401.675 42.6081C402.144 42.8641 402.976 43.0988 404.171 43.3121C405.024 43.6108 405.451 44.0801 405.451 44.7201C405.451 45.1894 405.216 45.5521 404.747 45.8081C404.32 46.0214 403.488 46.1281 402.251 46.1281L397.707 46.0641L393.355 46.1281C392.16 46.1281 391.328 46.0428 390.859 45.8721C390.39 45.6588 390.155 45.2748 390.155 44.7201C390.155 44.0374 390.582 43.5894 391.435 43.3761C392.758 43.1201 393.632 42.8214 394.059 42.4801C394.528 42.1388 394.763 41.4348 394.763 40.3681C394.763 40.0268 394.678 39.0454 394.507 37.4241L393.291 26.8001C392.949 24.1548 392.224 22.2348 391.115 21.0401C390.006 19.8028 388.363 19.1841 386.187 19.1841C384.907 19.1841 383.648 19.5681 382.411 20.3361C381.174 21.0614 380.15 22.2134 379.339 23.7921C378.528 25.3708 378.123 27.3548 378.123 29.7441V38.5121C378.123 39.7921 378.187 40.7308 378.315 41.3281C378.443 41.8828 378.763 42.3308 379.275 42.6721C379.787 42.9708 380.64 43.2268 381.835 43.4401C382.603 43.6534 382.987 44.0801 382.987 44.7201C382.987 45.1894 382.731 45.5521 382.219 45.8081C381.75 46.0214 380.768 46.1281 379.275 46.1281L375.499 46.0641L371.659 46.1281Z" fill="black"/>
<path d="M406.575 57.7121C404.741 57.7121 403.269 57.2428 402.159 56.3041C401.093 55.4081 400.559 54.1921 400.559 52.6561C400.559 51.8028 400.815 51.0774 401.327 50.4801C401.839 49.9254 402.479 49.6481 403.247 49.6481C403.93 49.6481 404.485 49.8401 404.911 50.2241C405.338 50.6081 405.615 51.1201 405.743 51.7601C405.829 52.6561 406.063 53.3814 406.447 53.9361C406.831 54.5334 407.322 54.8321 407.919 54.8321C408.858 54.8321 410.031 54.1921 411.439 52.9121C412.89 51.6321 414.319 50.1388 415.727 48.4321C415.941 48.1334 416.047 47.8348 416.047 47.5361C416.047 47.1521 415.855 46.4481 415.471 45.4241C414.831 43.7601 414.149 41.8188 413.423 39.6001C412.698 37.3814 412.165 35.7814 411.823 34.8001C409.861 28.9548 408.325 24.5814 407.215 21.6801C406.746 20.5281 406.277 19.7601 405.807 19.3761C405.381 18.9494 404.655 18.6721 403.631 18.5441C402.693 18.3308 402.223 17.8401 402.223 17.0721C402.223 16.5601 402.437 16.1974 402.863 15.9841C403.29 15.7708 404.037 15.6641 405.103 15.6641L410.159 15.7281L415.279 15.6641C416.431 15.6641 417.199 15.7921 417.583 16.0481C417.967 16.2614 418.159 16.6028 418.159 17.0721C418.159 17.7548 417.797 18.1814 417.071 18.3521C415.578 18.5228 414.511 18.7788 413.871 19.1201C413.274 19.4188 412.975 19.8668 412.975 20.4641C412.975 20.7628 413.082 21.1681 413.295 21.6801C414.106 23.7708 415.322 27.2481 416.943 32.1121C418.223 36.0374 419.183 38.8748 419.823 40.6241C419.951 40.9654 420.143 41.1361 420.399 41.1361C420.655 41.1361 420.847 40.9868 420.975 40.6881C423.151 37.4028 424.837 34.6294 426.031 32.3681C427.226 30.0641 427.866 27.9521 427.951 26.0321C427.994 25.6908 428.015 25.2428 428.015 24.6881C428.015 23.5361 427.802 22.6401 427.375 22.0001C426.991 21.3601 426.415 20.8481 425.647 20.4641C424.581 19.6534 424.047 18.6721 424.047 17.5201C424.047 17.1788 424.133 16.8374 424.303 16.4961C424.474 16.1548 424.709 15.8774 425.007 15.6641C425.477 15.3228 426.095 15.1521 426.863 15.1521C427.631 15.1521 428.378 15.4081 429.103 15.9201C429.743 16.4321 430.213 17.0081 430.511 17.6481C431.407 19.1841 431.855 21.1254 431.855 23.4721C431.855 26.8854 430.127 31.5788 426.671 37.5521C424.794 40.7094 422.938 43.5041 421.103 45.9361C415.13 53.7868 410.287 57.7121 406.575 57.7121Z" fill="black"/>
<path d="M448.545 46.7041C445.515 46.7041 442.892 45.9788 440.673 44.5281C438.497 43.0774 436.833 41.1361 435.681 38.7041C434.572 36.2294 434.017 33.4988 434.017 30.5121C434.017 27.5254 434.678 24.8588 436.001 22.5121C437.366 20.1654 439.158 18.3521 441.377 17.0721C443.638 15.7921 446.07 15.1521 448.673 15.1521C451.062 15.1521 453.174 15.6641 455.009 16.6881C456.886 17.6694 458.337 18.9494 459.361 20.5281C460.385 22.1068 460.897 23.7494 460.897 25.4561C460.897 26.8214 460.556 27.7814 459.873 28.3361C459.233 28.8481 458.145 29.2108 456.609 29.4241L441.249 31.7281C440.908 31.7708 440.652 31.8774 440.481 32.0481C440.353 32.1761 440.289 32.4108 440.289 32.7521C440.289 34.2881 440.673 35.8241 441.441 37.3601C442.209 38.8961 443.318 40.1761 444.769 41.2001C446.262 42.2241 448.033 42.7361 450.081 42.7361C452.172 42.7361 454.006 42.2881 455.585 41.3921C457.164 40.4534 458.486 39.2801 459.553 37.8721C459.852 37.4881 460.15 37.2961 460.449 37.2961C460.918 37.2961 461.217 37.4668 461.345 37.8081C461.516 38.1494 461.537 38.4908 461.409 38.8321C460.342 41.1361 458.7 43.0348 456.481 44.5281C454.305 45.9788 451.659 46.7041 448.545 46.7041ZM453.473 26.9281C454.284 26.8001 454.838 26.6081 455.137 26.3521C455.436 26.0961 455.585 25.6908 455.585 25.1361C455.585 24.0268 455.265 22.9174 454.625 21.8081C454.028 20.6988 453.131 19.7814 451.937 19.0561C450.785 18.3308 449.441 17.9681 447.905 17.9681C446.582 17.9681 445.281 18.3734 444.001 19.1841C442.764 19.9521 441.74 21.0614 440.929 22.5121C440.161 23.9201 439.777 25.5201 439.777 27.3121C439.777 27.9094 439.82 28.3361 439.905 28.5921C440.033 28.8054 440.225 28.9121 440.481 28.9121C440.737 28.9121 440.929 28.8908 441.057 28.8481L453.473 26.9281Z" fill="black"/>
<path d="M20.4923 143.704C16.7377 143.704 13.303 142.744 10.1883 140.824C7.11635 138.861 4.68435 136.109 2.89235 132.568C1.10035 128.984 0.204346 124.867 0.204346 120.216C0.204346 116.035 1.05768 112.216 2.76435 108.76C4.47101 105.261 6.83901 102.509 9.86835 100.504C12.8977 98.4988 16.3537 97.4961 20.2363 97.4961C22.3697 97.4961 24.4177 97.8374 26.3803 98.5201C28.343 99.1601 30.0923 100.077 31.6283 101.272C32.183 101.699 32.9297 102.424 33.8683 103.448C34.7217 104.557 35.3403 105.56 35.7243 106.456C36.407 107.736 36.7483 109.123 36.7483 110.616C36.7483 111.597 36.471 112.429 35.9163 113.112C35.3617 113.795 34.5297 114.136 33.4203 114.136C32.567 114.136 31.8203 113.859 31.1803 113.304C30.583 112.749 30.0497 111.768 29.5803 110.36C29.5803 107.629 28.663 105.347 26.8283 103.512C24.9937 101.677 22.583 100.76 19.5963 100.76C17.1217 100.76 14.903 101.464 12.9403 102.872C10.9777 104.28 9.42035 106.243 8.26835 108.76C7.15901 111.277 6.60435 114.157 6.60435 117.4C6.60435 121.325 7.22301 124.888 8.46035 128.088C9.69768 131.288 11.4897 133.827 13.8363 135.704C16.2257 137.539 19.063 138.456 22.3483 138.456C25.847 138.456 28.727 137.624 30.9883 135.96C33.2497 134.296 34.6363 132.099 35.1483 129.368C35.319 128.813 35.7243 128.536 36.3643 128.536C36.7057 128.536 37.0043 128.664 37.2603 128.92C37.559 129.176 37.687 129.517 37.6443 129.944C37.431 132.248 36.6417 134.467 35.2763 136.6C33.911 138.691 31.9697 140.397 29.4523 141.72C26.935 143.043 23.9483 143.704 20.4923 143.704Z" fill="black"/>
<path d="M56.9468 143.704C53.9175 143.704 51.2082 143.043 48.8188 141.72C46.4295 140.355 44.5735 138.477 43.2508 136.088C41.9282 133.656 41.2668 130.925 41.2668 127.896C41.2668 124.867 41.9282 122.157 43.2508 119.768C44.5735 117.336 46.4295 115.459 48.8188 114.136C51.2082 112.771 53.9175 112.088 56.9468 112.088C59.9762 112.088 62.6642 112.771 65.0108 114.136C67.4002 115.459 69.2562 117.336 70.5788 119.768C71.9015 122.157 72.5629 124.867 72.5629 127.896C72.5629 130.968 71.9015 133.699 70.5788 136.088C69.2562 138.477 67.4215 140.355 65.0749 141.72C62.7282 143.043 60.0188 143.704 56.9468 143.704ZM57.3948 140.824C60.1255 140.824 62.3229 139.821 63.9869 137.816C65.6935 135.811 66.5469 133.144 66.5469 129.816C66.5469 127.341 66.1202 124.973 65.2669 122.712C64.4562 120.451 63.2828 118.616 61.7468 117.208C60.2108 115.757 58.4402 115.032 56.4348 115.032C53.7042 115.032 51.4855 116.035 49.7788 118.04C48.1148 120.045 47.2828 122.691 47.2828 125.976C47.2828 128.451 47.6882 130.84 48.4988 133.144C49.3522 135.448 50.5468 137.304 52.0828 138.712C53.6188 140.12 55.3895 140.824 57.3948 140.824Z" fill="black"/>
<path d="M79.6009 143.192C78.1075 143.192 77.0835 143.085 76.5288 142.872C76.0168 142.659 75.7608 142.317 75.7608 141.848C75.7608 141.507 75.8462 141.251 76.0168 141.08C76.1875 140.867 76.4648 140.696 76.8488 140.568C78.0435 140.355 78.8755 140.077 79.3448 139.736C79.8568 139.395 80.1555 138.968 80.2409 138.456C80.3689 137.901 80.4328 136.963 80.4328 135.64V119.128C80.4328 118.232 80.3475 117.613 80.1768 117.272C80.0062 116.888 79.5795 116.696 78.8969 116.696C78.4275 116.696 77.9795 116.717 77.5528 116.76C77.1262 116.803 76.7635 116.824 76.4649 116.824C76.0382 116.824 75.7182 116.781 75.5049 116.696C75.3342 116.568 75.2488 116.333 75.2488 115.992C75.2488 115.565 75.3982 115.245 75.6968 115.032C75.9955 114.776 76.4222 114.563 76.9769 114.392C77.3182 114.264 77.6808 114.157 78.0648 114.072C78.4489 113.944 78.8329 113.816 79.2169 113.688C81.8622 112.835 83.5902 112.408 84.4008 112.408C84.9982 112.408 85.4248 112.557 85.6808 112.856C85.9795 113.112 86.1289 113.56 86.1289 114.2V116.568C86.1289 117.336 86.1502 117.891 86.1928 118.232C86.2355 118.573 86.2995 118.744 86.3848 118.744C86.4275 118.744 86.7262 118.168 87.2808 117.016C87.8355 115.864 88.8808 114.755 90.4168 113.688C91.9955 112.621 93.9582 112.088 96.3048 112.088C98.2675 112.088 99.9528 112.6 101.361 113.624C102.769 114.648 103.836 116.163 104.561 118.168C104.732 118.552 104.902 118.744 105.073 118.744C105.158 118.744 105.5 118.147 106.097 116.952C106.737 115.757 107.761 114.648 109.169 113.624C110.577 112.6 112.454 112.088 114.801 112.088C117.276 112.088 119.345 112.984 121.009 114.776C122.673 116.568 123.697 119.277 124.081 122.904L125.489 134.872C125.66 136.579 125.83 137.731 126.001 138.328C126.172 138.925 126.47 139.352 126.897 139.608C127.366 139.864 128.198 140.099 129.393 140.312C130.289 140.568 130.737 141.037 130.737 141.72C130.737 142.189 130.545 142.552 130.161 142.808C129.777 143.021 129.052 143.128 127.985 143.128L123.441 143.064L119.089 143.128C117.724 143.128 116.785 143.043 116.273 142.872C115.761 142.659 115.505 142.275 115.505 141.72C115.505 140.995 115.91 140.547 116.721 140.376C118.086 140.163 118.982 139.885 119.409 139.544C119.836 139.203 120.049 138.499 120.049 137.432C120.049 137.133 119.964 136.131 119.793 134.424L118.577 123.928C117.98 118.765 115.974 116.184 112.561 116.184C111.409 116.184 110.3 116.547 109.233 117.272C108.166 117.955 107.27 119.021 106.545 120.472C105.862 121.923 105.521 123.736 105.521 125.912V135.576C105.521 136.899 105.564 137.859 105.649 138.456C105.777 139.011 106.076 139.501 106.545 139.928C107.057 140.312 107.889 140.611 109.041 140.824C109.596 140.952 109.873 141.293 109.873 141.848C109.873 142.744 109.212 143.192 107.889 143.192L102.769 143.128L97.8409 143.192C96.3902 143.192 95.6648 142.744 95.6648 141.848C95.6648 141.208 95.9635 140.781 96.5609 140.568C97.6275 140.397 98.3955 140.141 98.8649 139.8C99.3342 139.416 99.6115 138.925 99.6968 138.328C99.8248 137.731 99.8888 136.813 99.8888 135.576V125.4C99.8888 119.256 97.7982 116.184 93.6169 116.184C92.4649 116.184 91.3128 116.547 90.1609 117.272C89.0089 117.997 88.0488 119.149 87.2808 120.728C86.5128 122.307 86.1289 124.312 86.1289 126.744V135.576C86.1289 136.856 86.1715 137.795 86.2569 138.392C86.3849 138.989 86.6835 139.459 87.1528 139.8C87.6222 140.141 88.4115 140.376 89.5209 140.504C90.1609 140.803 90.4809 141.251 90.4809 141.848C90.4809 142.275 90.2675 142.616 89.8409 142.872C89.4142 143.085 88.5395 143.192 87.2169 143.192L83.3129 143.128L79.6009 143.192Z" fill="black"/>
<path d="M136.538 143.192C135.045 143.192 134.021 143.085 133.466 142.872C132.954 142.659 132.698 142.317 132.698 141.848C132.698 141.507 132.784 141.251 132.954 141.08C133.125 140.867 133.402 140.696 133.786 140.568C134.981 140.355 135.813 140.077 136.282 139.736C136.794 139.395 137.093 138.968 137.178 138.456C137.306 137.901 137.37 136.963 137.37 135.64V119.128C137.37 118.232 137.285 117.613 137.114 117.272C136.944 116.888 136.517 116.696 135.834 116.696C135.365 116.696 134.917 116.717 134.49 116.76C134.064 116.803 133.701 116.824 133.402 116.824C132.976 116.824 132.656 116.781 132.442 116.696C132.272 116.568 132.186 116.333 132.186 115.992C132.186 115.565 132.336 115.245 132.634 115.032C132.933 114.776 133.36 114.563 133.914 114.392C134.256 114.264 134.618 114.157 135.002 114.072C135.386 113.944 135.77 113.816 136.154 113.688C138.8 112.835 140.528 112.408 141.338 112.408C141.936 112.408 142.362 112.557 142.618 112.856C142.917 113.112 143.066 113.56 143.066 114.2V116.568C143.066 117.336 143.088 117.891 143.13 118.232C143.173 118.573 143.237 118.744 143.322 118.744C143.365 118.744 143.664 118.168 144.218 117.016C144.773 115.864 145.818 114.755 147.354 113.688C148.933 112.621 150.896 112.088 153.242 112.088C155.205 112.088 156.89 112.6 158.298 113.624C159.706 114.648 160.773 116.163 161.498 118.168C161.669 118.552 161.84 118.744 162.01 118.744C162.096 118.744 162.437 118.147 163.034 116.952C163.674 115.757 164.698 114.648 166.106 113.624C167.514 112.6 169.392 112.088 171.738 112.088C174.213 112.088 176.282 112.984 177.946 114.776C179.61 116.568 180.634 119.277 181.018 122.904L182.426 134.872C182.597 136.579 182.768 137.731 182.938 138.328C183.109 138.925 183.408 139.352 183.834 139.608C184.304 139.864 185.136 140.099 186.33 140.312C187.226 140.568 187.674 141.037 187.674 141.72C187.674 142.189 187.482 142.552 187.098 142.808C186.714 143.021 185.989 143.128 184.922 143.128L180.378 143.064L176.026 143.128C174.661 143.128 173.722 143.043 173.21 142.872C172.698 142.659 172.442 142.275 172.442 141.72C172.442 140.995 172.848 140.547 173.658 140.376C175.024 140.163 175.92 139.885 176.346 139.544C176.773 139.203 176.986 138.499 176.986 137.432C176.986 137.133 176.901 136.131 176.73 134.424L175.514 123.928C174.917 118.765 172.912 116.184 169.498 116.184C168.346 116.184 167.237 116.547 166.17 117.272C165.104 117.955 164.208 119.021 163.482 120.472C162.8 121.923 162.458 123.736 162.458 125.912V135.576C162.458 136.899 162.501 137.859 162.586 138.456C162.714 139.011 163.013 139.501 163.482 139.928C163.994 140.312 164.826 140.611 165.978 140.824C166.533 140.952 166.81 141.293 166.81 141.848C166.81 142.744 166.149 143.192 164.826 143.192L159.706 143.128L154.778 143.192C153.328 143.192 152.602 142.744 152.602 141.848C152.602 141.208 152.901 140.781 153.498 140.568C154.565 140.397 155.333 140.141 155.802 139.8C156.272 139.416 156.549 138.925 156.634 138.328C156.762 137.731 156.826 136.813 156.826 135.576V125.4C156.826 119.256 154.736 116.184 150.554 116.184C149.402 116.184 148.25 116.547 147.098 117.272C145.946 117.997 144.986 119.149 144.218 120.728C143.45 122.307 143.066 124.312 143.066 126.744V135.576C143.066 136.856 143.109 137.795 143.194 138.392C143.322 138.989 143.621 139.459 144.09 139.8C144.56 140.141 145.349 140.376 146.458 140.504C147.098 140.803 147.418 141.251 147.418 141.848C147.418 142.275 147.205 142.616 146.778 142.872C146.352 143.085 145.477 143.192 144.154 143.192L140.25 143.128L136.538 143.192Z" fill="black"/>
<path d="M202.397 143.64C199.283 143.64 196.787 142.637 194.909 140.632C193.075 138.627 192.157 135.597 192.157 131.544V119.128C192.157 118.232 192.051 117.592 191.837 117.208C191.667 116.824 191.24 116.632 190.557 116.632C190.088 116.632 189.64 116.653 189.213 116.696C188.829 116.739 188.488 116.76 188.189 116.76C187.763 116.76 187.443 116.717 187.229 116.632C187.059 116.504 186.952 116.312 186.909 116.056C186.909 115.587 187.059 115.245 187.357 115.032C187.699 114.776 188.189 114.541 188.829 114.328C190.109 113.944 190.899 113.709 191.197 113.624C192.179 113.325 193.117 113.048 194.013 112.792C194.909 112.536 195.592 112.408 196.061 112.408C196.659 112.408 197.085 112.536 197.341 112.792C197.64 113.048 197.789 113.496 197.789 114.136V130.584C197.789 136.557 200.136 139.544 204.829 139.544C206.195 139.544 207.496 139.16 208.733 138.392C209.971 137.624 210.973 136.451 211.741 134.872C212.552 133.251 212.957 131.267 212.957 128.92V119.128C212.957 118.232 212.851 117.592 212.637 117.208C212.467 116.824 212.04 116.632 211.357 116.632C210.888 116.632 210.44 116.653 210.013 116.696C209.629 116.739 209.288 116.76 208.989 116.76C208.563 116.76 208.243 116.717 208.029 116.632C207.859 116.504 207.752 116.312 207.709 116.056C207.709 115.587 207.859 115.245 208.157 115.032C208.499 114.776 208.989 114.541 209.629 114.328C210.909 113.944 211.699 113.709 211.997 113.624C212.979 113.325 213.917 113.048 214.813 112.792C215.709 112.536 216.392 112.408 216.861 112.408C217.459 112.408 217.885 112.536 218.141 112.792C218.44 113.048 218.589 113.496 218.589 114.136V136.728C218.589 137.581 218.675 138.2 218.845 138.584C219.059 138.968 219.507 139.16 220.189 139.16C220.659 139.16 221.085 139.139 221.469 139.096C221.896 139.053 222.259 139.032 222.557 139.032C222.984 139.032 223.283 139.096 223.453 139.224C223.667 139.309 223.795 139.48 223.837 139.736C223.837 140.205 223.667 140.568 223.325 140.824C223.027 141.037 222.557 141.251 221.917 141.464C220.637 141.848 219.848 142.083 219.549 142.168C218.568 142.467 217.629 142.744 216.733 143C215.837 143.256 215.155 143.384 214.685 143.384C214.088 143.384 213.64 143.256 213.341 143C213.085 142.744 212.957 142.296 212.957 141.656V138.072C212.957 137.389 212.851 137.048 212.637 137.048C212.595 137.048 212.275 137.624 211.677 138.776C211.123 139.928 210.056 141.037 208.477 142.104C206.941 143.128 204.915 143.64 202.397 143.64Z" fill="black"/>
<path d="M230.163 143.128C228.713 143.128 227.71 143.021 227.155 142.808C226.601 142.552 226.323 142.189 226.323 141.72C226.323 141.037 226.665 140.632 227.347 140.504C228.542 140.291 229.395 140.013 229.907 139.672C230.419 139.331 230.718 138.883 230.803 138.328C230.931 137.773 230.995 136.856 230.995 135.576V119.064C230.995 118.211 230.91 117.592 230.739 117.208C230.569 116.824 230.142 116.632 229.459 116.632L227.091 116.696C226.622 116.696 226.281 116.653 226.067 116.568C225.897 116.44 225.811 116.227 225.811 115.928C225.811 115.544 225.961 115.245 226.259 115.032C226.601 114.776 227.07 114.541 227.667 114.328L229.523 113.752C232.382 112.856 234.174 112.408 234.899 112.408C235.539 112.408 235.987 112.536 236.243 112.792C236.542 113.048 236.691 113.496 236.691 114.136V117.976C236.691 118.488 236.777 118.744 236.947 118.744C236.99 118.744 237.31 118.168 237.907 117.016C238.505 115.821 239.571 114.712 241.107 113.688C242.686 112.621 244.713 112.088 247.187 112.088C253.161 112.088 256.595 116.013 257.491 123.864L258.707 134.808C258.921 136.557 259.091 137.731 259.219 138.328C259.39 138.925 259.71 139.352 260.179 139.608C260.649 139.864 261.481 140.099 262.675 140.312C263.529 140.568 263.955 141.037 263.955 141.72C263.955 142.189 263.763 142.552 263.379 142.808C262.995 143.021 262.27 143.128 261.203 143.128L256.659 143.064L252.307 143.128C250.942 143.128 250.003 143.043 249.491 142.872C248.979 142.659 248.723 142.275 248.723 141.72C248.723 140.995 249.129 140.547 249.939 140.376C251.305 140.163 252.201 139.907 252.627 139.608C253.054 139.267 253.267 138.584 253.267 137.56C253.267 137.219 253.182 136.152 253.011 134.36L251.923 124.888C251.582 121.901 250.857 119.704 249.747 118.296C248.638 116.888 246.974 116.184 244.755 116.184C243.475 116.184 242.217 116.568 240.979 117.336C239.742 118.104 238.718 119.277 237.907 120.856C237.097 122.435 236.691 124.397 236.691 126.744V135.512C236.691 136.792 236.755 137.731 236.883 138.328C237.011 138.883 237.331 139.331 237.843 139.672C238.355 139.971 239.209 140.227 240.403 140.44C241.171 140.653 241.555 141.08 241.555 141.72C241.555 142.189 241.299 142.552 240.787 142.808C240.318 143.021 239.337 143.128 237.843 143.128L234.003 143.064L230.163 143.128Z" fill="black"/>
<path d="M269.788 143.256C268.338 143.256 267.335 143.149 266.78 142.936C266.226 142.68 265.948 142.317 265.948 141.848C265.948 141.208 266.29 140.781 266.972 140.568C268.167 140.397 269.02 140.141 269.532 139.8C270.044 139.459 270.343 139.011 270.428 138.456C270.556 137.901 270.62 136.963 270.62 135.64V119.064C270.62 118.211 270.535 117.592 270.364 117.208C270.194 116.824 269.81 116.632 269.212 116.632C268.7 116.632 268.231 116.653 267.804 116.696C267.378 116.739 267.015 116.76 266.716 116.76C266.247 116.76 265.906 116.717 265.692 116.632C265.522 116.504 265.436 116.269 265.436 115.928C265.436 115.544 265.586 115.245 265.884 115.032C266.226 114.776 266.695 114.541 267.292 114.328L269.148 113.752C272.007 112.856 273.799 112.408 274.524 112.408C275.164 112.408 275.612 112.536 275.868 112.792C276.167 113.048 276.316 113.496 276.316 114.136V135.64C276.316 136.92 276.38 137.837 276.508 138.392C276.636 138.947 276.956 139.395 277.468 139.736C277.98 140.077 278.834 140.355 280.028 140.568C280.796 140.781 281.18 141.208 281.18 141.848C281.18 142.317 280.924 142.68 280.412 142.936C279.943 143.149 278.962 143.256 277.468 143.256L273.628 143.192L269.788 143.256ZM272.348 107.224C271.068 107.224 270.044 106.925 269.276 106.328C268.508 105.688 268.124 104.877 268.124 103.896C268.124 102.915 268.508 102.147 269.276 101.592C270.044 100.995 271.068 100.696 272.348 100.696C273.586 100.696 274.567 100.995 275.292 101.592C276.06 102.147 276.444 102.915 276.444 103.896C276.444 104.877 276.06 105.688 275.292 106.328C274.567 106.925 273.586 107.224 272.348 107.224Z" fill="black"/>
<path d="M296.491 143.64C293.675 143.64 291.478 142.829 289.899 141.208C288.32 139.587 287.531 137.048 287.531 133.592V116.824C287.531 116.355 287.403 116.035 287.147 115.864C286.934 115.693 286.613 115.608 286.187 115.608H285.291C284.949 115.608 284.672 115.48 284.459 115.224C284.245 114.968 284.139 114.669 284.139 114.328C284.139 113.773 284.416 113.027 284.971 112.088L285.611 111.128C286.806 108.739 287.936 107.011 289.003 105.944C290.027 105.005 291.094 104.536 292.203 104.536C292.63 104.536 292.928 104.664 293.099 104.92C293.27 105.176 293.355 105.603 293.355 106.2V110.616C293.355 111.597 293.398 112.216 293.483 112.472C293.568 112.685 293.803 112.792 294.187 112.792H303.083C303.51 112.792 303.808 112.877 303.979 113.048C304.15 113.176 304.235 113.475 304.235 113.944C304.235 114.456 304.064 114.861 303.723 115.16C303.424 115.459 303.019 115.608 302.507 115.608H294.635C293.654 115.608 293.163 116.035 293.163 116.888V132.696C293.163 135 293.632 136.728 294.571 137.88C295.552 139.032 296.896 139.608 298.603 139.608C299.627 139.608 300.672 139.309 301.739 138.712C302.848 138.072 303.808 137.133 304.619 135.896C304.918 135.469 305.237 135.256 305.579 135.256C305.92 135.256 306.176 135.405 306.347 135.704C306.517 136.003 306.539 136.323 306.411 136.664C304.619 141.315 301.312 143.64 296.491 143.64Z" fill="black"/>
<path d="M310.513 154.712C308.678 154.712 307.206 154.243 306.097 153.304C305.03 152.408 304.497 151.192 304.497 149.656C304.497 148.803 304.753 148.077 305.265 147.48C305.777 146.925 306.417 146.648 307.185 146.648C307.868 146.648 308.422 146.84 308.849 147.224C309.276 147.608 309.553 148.12 309.681 148.76C309.766 149.656 310.001 150.381 310.385 150.936C310.769 151.533 311.26 151.832 311.857 151.832C312.796 151.832 313.969 151.192 315.377 149.912C316.827 148.632 318.257 147.139 319.665 145.432C319.878 145.133 319.985 144.835 319.985 144.536C319.985 144.152 319.793 143.448 319.409 142.424C318.769 140.76 318.086 138.819 317.361 136.6C316.636 134.381 316.102 132.781 315.761 131.8C313.798 125.955 312.262 121.581 311.153 118.68C310.683 117.528 310.214 116.76 309.745 116.376C309.318 115.949 308.593 115.672 307.569 115.544C306.63 115.331 306.161 114.84 306.161 114.072C306.161 113.56 306.374 113.197 306.801 112.984C307.228 112.771 307.974 112.664 309.041 112.664L314.097 112.728L319.217 112.664C320.369 112.664 321.137 112.792 321.521 113.048C321.905 113.261 322.097 113.603 322.097 114.072C322.097 114.755 321.734 115.181 321.009 115.352C319.516 115.523 318.449 115.779 317.809 116.12C317.212 116.419 316.913 116.867 316.913 117.464C316.913 117.763 317.02 118.168 317.233 118.68C318.044 120.771 319.259 124.248 320.881 129.112C322.161 133.037 323.121 135.875 323.761 137.624C323.889 137.965 324.081 138.136 324.337 138.136C324.593 138.136 324.785 137.987 324.913 137.688C327.089 134.403 328.774 131.629 329.969 129.368C331.164 127.064 331.804 124.952 331.889 123.032C331.932 122.691 331.953 122.243 331.953 121.688C331.953 120.536 331.74 119.64 331.313 119C330.929 118.36 330.353 117.848 329.585 117.464C328.518 116.653 327.985 115.672 327.985 114.52C327.985 114.179 328.07 113.837 328.241 113.496C328.412 113.155 328.646 112.877 328.945 112.664C329.414 112.323 330.033 112.152 330.801 112.152C331.569 112.152 332.315 112.408 333.041 112.92C333.681 113.432 334.15 114.008 334.449 114.648C335.345 116.184 335.793 118.125 335.793 120.472C335.793 123.885 334.065 128.579 330.609 134.552C328.732 137.709 326.875 140.504 325.041 142.936C319.067 150.787 314.225 154.712 310.513 154.712Z" fill="black"/>
<path d="M360.822 143.064C359.926 143.064 359.308 142.979 358.966 142.808C358.625 142.595 358.454 142.211 358.454 141.656C358.454 140.973 358.924 140.44 359.862 140.056C361.185 139.8 362.124 139.523 362.678 139.224C363.276 138.883 363.66 138.435 363.83 137.88C364.001 137.283 364.086 136.365 364.086 135.128V106.072C364.086 104.792 364.001 103.875 363.83 103.32C363.66 102.765 363.297 102.339 362.742 102.04C362.188 101.699 361.228 101.4 359.862 101.144C359.436 101.016 359.094 100.824 358.838 100.568C358.582 100.269 358.454 99.9281 358.454 99.5441C358.454 98.9894 358.625 98.6268 358.966 98.4561C359.308 98.2428 359.926 98.1361 360.822 98.1361H367.03C369.292 98.1788 374.668 98.2001 383.158 98.2001C384.054 98.2001 384.716 98.1361 385.142 98.0081C385.569 97.8801 385.953 97.7094 386.294 97.4961C386.764 97.1974 387.212 97.0481 387.638 97.0481C388.108 97.0481 388.47 97.1974 388.726 97.4961C389.025 97.7948 389.324 98.4348 389.622 99.4161C389.964 100.355 390.433 101.976 391.03 104.28C391.969 107.651 392.438 109.891 392.438 111C392.438 111.597 392.332 112.024 392.118 112.28C391.905 112.493 391.564 112.6 391.094 112.6C390.241 112.6 389.58 111.939 389.11 110.616C388.214 107.459 387.532 105.283 387.062 104.088C386.593 102.893 386.081 102.125 385.526 101.784C384.972 101.4 384.097 101.208 382.902 101.208H372.918C372.022 101.208 371.361 101.293 370.934 101.464C370.55 101.635 370.294 101.955 370.166 102.424C370.038 102.851 369.974 103.555 369.974 104.536V116.568C369.974 117.293 370.06 117.827 370.23 118.168C370.444 118.509 370.87 118.68 371.51 118.68H377.398C378.166 118.68 378.7 118.573 378.998 118.36C379.34 118.147 379.51 117.763 379.51 117.208C379.51 116.824 379.361 115.928 379.062 114.52C379.02 114.349 378.998 114.115 378.998 113.816C378.998 113.389 379.084 113.069 379.254 112.856C379.468 112.643 379.83 112.536 380.342 112.536C380.726 112.536 381.046 112.707 381.302 113.048C381.558 113.347 381.857 114.008 382.198 115.032C382.54 116.056 382.988 117.699 383.542 119.96C384.438 123.459 384.886 125.656 384.886 126.552C384.886 127.021 384.801 127.363 384.63 127.576C384.46 127.747 384.161 127.832 383.734 127.832C383.265 127.832 382.902 127.725 382.646 127.512C382.39 127.256 382.177 126.872 382.006 126.36C381.665 124.995 381.345 123.992 381.046 123.352C380.748 122.712 380.406 122.285 380.022 122.072C379.638 121.859 379.126 121.752 378.486 121.752H371.958C371.105 121.752 370.55 121.944 370.294 122.328C370.081 122.712 369.974 123.395 369.974 124.376V135.128C369.974 136.365 370.081 137.261 370.294 137.816C370.508 138.328 370.977 138.733 371.702 139.032C372.428 139.288 373.686 139.565 375.478 139.864C375.99 139.949 376.417 140.163 376.758 140.504C377.142 140.803 377.334 141.187 377.334 141.656C377.334 142.168 377.1 142.531 376.63 142.744C376.161 142.957 375.372 143.064 374.262 143.064H360.822Z" fill="black"/>
<path d="M407.21 143.64C404.095 143.64 401.599 142.637 399.722 140.632C397.887 138.627 396.97 135.597 396.97 131.544V119.128C396.97 118.232 396.863 117.592 396.65 117.208C396.479 116.824 396.053 116.632 395.37 116.632C394.901 116.632 394.453 116.653 394.026 116.696C393.642 116.739 393.3 116.76 393.002 116.76C392.575 116.76 392.255 116.717 392.042 116.632C391.871 116.504 391.764 116.312 391.722 116.056C391.722 115.587 391.871 115.245 392.17 115.032C392.511 114.776 393.002 114.541 393.642 114.328C394.922 113.944 395.711 113.709 396.01 113.624C396.991 113.325 397.93 113.048 398.826 112.792C399.722 112.536 400.405 112.408 400.874 112.408C401.471 112.408 401.898 112.536 402.154 112.792C402.453 113.048 402.602 113.496 402.602 114.136V130.584C402.602 136.557 404.949 139.544 409.642 139.544C411.007 139.544 412.309 139.16 413.546 138.392C414.783 137.624 415.786 136.451 416.554 134.872C417.364 133.251 417.77 131.267 417.77 128.92V119.128C417.77 118.232 417.663 117.592 417.45 117.208C417.279 116.824 416.852 116.632 416.17 116.632C415.7 116.632 415.253 116.653 414.826 116.696C414.442 116.739 414.101 116.76 413.802 116.76C413.375 116.76 413.055 116.717 412.842 116.632C412.671 116.504 412.565 116.312 412.522 116.056C412.522 115.587 412.671 115.245 412.97 115.032C413.311 114.776 413.802 114.541 414.442 114.328C415.722 113.944 416.511 113.709 416.81 113.624C417.791 113.325 418.73 113.048 419.626 112.792C420.522 112.536 421.205 112.408 421.674 112.408C422.271 112.408 422.698 112.536 422.954 112.792C423.252 113.048 423.402 113.496 423.402 114.136V136.728C423.402 137.581 423.487 138.2 423.658 138.584C423.871 138.968 424.319 139.16 425.002 139.16C425.471 139.16 425.898 139.139 426.282 139.096C426.708 139.053 427.071 139.032 427.37 139.032C427.797 139.032 428.095 139.096 428.266 139.224C428.479 139.309 428.607 139.48 428.65 139.736C428.65 140.205 428.479 140.568 428.138 140.824C427.839 141.037 427.37 141.251 426.73 141.464C425.45 141.848 424.661 142.083 424.362 142.168C423.381 142.467 422.442 142.744 421.546 143C420.65 143.256 419.967 143.384 419.498 143.384C418.9 143.384 418.453 143.256 418.154 143C417.898 142.744 417.77 142.296 417.77 141.656V138.072C417.77 137.389 417.663 137.048 417.45 137.048C417.407 137.048 417.087 137.624 416.49 138.776C415.935 139.928 414.869 141.037 413.29 142.104C411.754 143.128 409.727 143.64 407.21 143.64Z" fill="black"/>
<path d="M434.976 143.128C433.525 143.128 432.523 143.021 431.968 142.808C431.413 142.552 431.136 142.189 431.136 141.72C431.136 141.037 431.477 140.632 432.16 140.504C433.355 140.291 434.208 140.013 434.72 139.672C435.232 139.331 435.531 138.883 435.616 138.328C435.744 137.773 435.808 136.856 435.808 135.576V119.064C435.808 118.211 435.723 117.592 435.552 117.208C435.381 116.824 434.955 116.632 434.272 116.632L431.904 116.696C431.435 116.696 431.093 116.653 430.88 116.568C430.709 116.44 430.624 116.227 430.624 115.928C430.624 115.544 430.773 115.245 431.072 115.032C431.413 114.776 431.882 114.541 432.48 114.328L434.336 113.752C437.195 112.856 438.987 112.408 439.712 112.408C440.352 112.408 440.8 112.536 441.056 112.792C441.355 113.048 441.504 113.496 441.504 114.136V117.976C441.504 118.488 441.589 118.744 441.76 118.744C441.803 118.744 442.123 118.168 442.72 117.016C443.317 115.821 444.384 114.712 445.92 113.688C447.498 112.621 449.525 112.088 452 112.088C457.973 112.088 461.408 116.013 462.304 123.864L463.52 134.808C463.733 136.557 463.904 137.731 464.032 138.328C464.202 138.925 464.523 139.352 464.992 139.608C465.461 139.864 466.293 140.099 467.488 140.312C468.341 140.568 468.768 141.037 468.768 141.72C468.768 142.189 468.576 142.552 468.192 142.808C467.808 143.021 467.083 143.128 466.016 143.128L461.472 143.064L457.12 143.128C455.755 143.128 454.816 143.043 454.304 142.872C453.792 142.659 453.536 142.275 453.536 141.72C453.536 140.995 453.941 140.547 454.752 140.376C456.117 140.163 457.013 139.907 457.44 139.608C457.867 139.267 458.08 138.584 458.08 137.56C458.08 137.219 457.995 136.152 457.824 134.36L456.736 124.888C456.395 121.901 455.669 119.704 454.56 118.296C453.451 116.888 451.787 116.184 449.568 116.184C448.288 116.184 447.029 116.568 445.792 117.336C444.555 118.104 443.531 119.277 442.72 120.856C441.909 122.435 441.504 124.397 441.504 126.744V135.512C441.504 136.792 441.568 137.731 441.696 138.328C441.824 138.883 442.144 139.331 442.656 139.672C443.168 139.971 444.021 140.227 445.216 140.44C445.984 140.653 446.368 141.08 446.368 141.72C446.368 142.189 446.112 142.552 445.6 142.808C445.131 143.021 444.149 143.128 442.656 143.128L438.816 143.064L434.976 143.128Z" fill="black"/>
<path d="M482.296 143.704C479.949 143.704 477.859 143.064 476.024 141.784C474.232 140.461 472.845 138.627 471.864 136.28C470.882 133.891 470.392 131.16 470.392 128.088C470.392 125.101 470.947 122.392 472.056 119.96C473.165 117.528 474.744 115.629 476.792 114.264C478.84 112.856 481.208 112.152 483.896 112.152C485.944 112.152 487.544 112.493 488.696 113.176C489.89 113.816 490.808 114.499 491.448 115.224C492.131 115.907 492.536 116.248 492.664 116.248C492.92 116.248 493.069 115.971 493.112 115.416C493.197 114.819 493.24 113.752 493.24 112.216V104.472C493.24 103.576 493.133 102.957 492.92 102.616C492.706 102.232 492.237 102.04 491.512 102.04C491.085 102.04 490.68 102.061 490.296 102.104C489.912 102.147 489.571 102.168 489.272 102.168C488.845 102.168 488.525 102.125 488.312 102.04C488.141 101.912 488.056 101.699 488.056 101.4C488.056 100.717 488.675 100.163 489.912 99.7361C491.192 99.3521 491.981 99.1174 492.28 99.0321C493.261 98.7334 494.2 98.4561 495.096 98.2001C495.992 97.9441 496.674 97.8161 497.144 97.8161C497.741 97.8161 498.168 97.9441 498.424 98.2001C498.723 98.4561 498.872 98.9041 498.872 99.5441V136.728C498.872 137.581 498.979 138.2 499.192 138.584C499.405 138.968 499.832 139.16 500.472 139.16C500.984 139.16 501.453 139.139 501.88 139.096C502.307 139.053 502.669 139.032 502.968 139.032C503.352 139.032 503.629 139.096 503.8 139.224C503.971 139.309 504.077 139.48 504.12 139.736C504.12 140.205 503.949 140.568 503.608 140.824C503.309 141.037 502.861 141.251 502.264 141.464C501.411 141.677 500.387 141.976 499.192 142.36C497.058 143.043 495.651 143.384 494.968 143.384C494.371 143.384 493.923 143.256 493.624 143C493.368 142.744 493.24 142.296 493.24 141.656V138.328C493.197 137.304 493.112 136.792 492.984 136.792C492.941 136.792 492.536 137.411 491.768 138.648C491.043 139.843 489.869 140.995 488.248 142.104C486.626 143.171 484.643 143.704 482.296 143.704ZM485.112 139.736C486.605 139.736 487.971 139.309 489.208 138.456C490.445 137.603 491.427 136.429 492.152 134.936C492.877 133.4 493.24 131.693 493.24 129.816V127.704C493.24 123.693 492.493 120.557 491 118.296C489.549 116.035 487.459 114.904 484.728 114.904C483.235 114.904 481.848 115.331 480.568 116.184C479.288 117.037 478.243 118.317 477.432 120.024C476.664 121.688 476.28 123.693 476.28 126.04C476.28 130.307 477.069 133.656 478.648 136.088C480.227 138.52 482.381 139.736 485.112 139.736Z" fill="black"/>
</svg>
