<svg width="32" height="32" viewBox="0 0 32 32" fill="none" xmlns="http://www.w3.org/2000/svg">
<path d="M25.6087 11.0815C25.3895 10.2677 24.7479 9.62603 23.934 9.40692C22.4472 9 16.5 9 16.5 9C16.5 9 10.5527 9 9.06589 9.39127C8.2677 9.61038 7.61038 10.2677 7.39127 11.0815C7 12.5684 7 15.6515 7 15.6515C7 15.6515 7 18.7504 7.39127 20.2215C7.61038 21.0354 8.25205 21.677 9.06589 21.8962C10.5684 22.3031 16.5 22.3031 16.5 22.3031C16.5 22.3031 22.4472 22.3031 23.934 21.9118C24.7479 21.6927 25.3895 21.051 25.6087 20.2372C25.9999 18.7504 25.9999 15.6672 25.9999 15.6672C25.9999 15.6672 26.0156 12.5684 25.6087 11.0815Z" fill="#222222"/>
<path d="M14.6062 18.4998L19.5518 15.6514L14.6062 12.803V18.4998Z" fill="white"/>
</svg>
